HIERARCHY
ROOT Hips
{
  OFFSET 3.13124 94.3669 -3.18751
  CHANNELS  6 Xposition Yposition Zposition Zrotation Xrotation Yrotation
  JOINT LeftUpLeg
  {
    OFFSET 8.64259 1.95398 -2.38835
    CHANNELS 3 Zrotation Xrotation Yrotation
    JOINT LeftLeg
    {
      OFFSET 43.7702 0 0
      CHANNELS 3 Zrotation Xrotation Yrotation
      JOINT LeftFoot
      {
        OFFSET 40.6238 0 0
        CHANNELS 3 Zrotation Xrotation Yrotation
        JOINT LeftToeBase
        {
          OFFSET 12.7242 0 0
          CHANNELS 3 Zrotation Xrotation Yrotation
          End Site
          {
            OFFSET 0 0 0
          }
        }
      }
    }
  }
  JOINT RightUpLeg
  {
    OFFSET -8.2249 1.95398 -2.59336
    CHANNELS 3 Zrotation Xrotation Yrotation
    JOINT RightLeg
    {
      OFFSET 43.5653 0 0
      CHANNELS 3 Zrotation Xrotation Yrotation
      JOINT RightFoot
      {
        OFFSET 40.6238 0 0
        CHANNELS 3 Zrotation Xrotation Yrotation
        JOINT RightToeBase
        {
          OFFSET 12.7242 0 0
          CHANNELS 3 Zrotation Xrotation Yrotation
          End Site
          {
            OFFSET 0 0 0
          }
        }
      }
    }
  }
  JOINT Spine
  {
    OFFSET 0.165834 0.87714 6.61349
    CHANNELS 3 Zrotation Xrotation Yrotation
    JOINT Spine1
    {
      OFFSET 7.38962 1.71661e-005 0
      CHANNELS 3 Zrotation Xrotation Yrotation
      JOINT Spine2
      {
        OFFSET 11.9445 1.14441e-005 0
        CHANNELS 3 Zrotation Xrotation Yrotation
        JOINT Spine3
        {
          OFFSET 14.7254 4.19617e-005 0
          CHANNELS 3 Zrotation Xrotation Yrotation
          JOINT Spine4
          {
            OFFSET 10.9679 0 0
            CHANNELS 3 Zrotation Xrotation Yrotation
            JOINT RightShoulder
            {
              OFFSET 2.46616 -1.6653 3.69651
              CHANNELS 3 Zrotation Xrotation Yrotation
              JOINT RightArm
              {
                OFFSET 13.0012 0 0
                CHANNELS 3 Zrotation Xrotation Yrotation
                JOINT RightForeArm
                {
                  OFFSET 28.7848 1.52588e-005 0
                  CHANNELS 3 Zrotation Xrotation Yrotation
                  JOINT RightHand
                  {
                    OFFSET 26.5688 1.52588e-005 0
                    CHANNELS 3 Zrotation Xrotation Yrotation
                    End Site
                    {
                      OFFSET 0 0 0
                    }
                  }
                }
              }
            }
            JOINT LeftShoulder
            {
              OFFSET 2.38034 -1.29275 -3.75231
              CHANNELS 3 Zrotation Xrotation Yrotation
              JOINT LeftArm
              {
                OFFSET 16.3182 6.10352e-005 0
                CHANNELS 3 Zrotation Xrotation Yrotation
                JOINT LeftForeArm
                {
                  OFFSET 27.0901 0 0
                  CHANNELS 3 Zrotation Xrotation Yrotation
                  JOINT LeftHand
                  {
                    OFFSET 24.5451 1.52588e-005 0
                    CHANNELS 3 Zrotation Xrotation Yrotation
                    End Site
                    {
                      OFFSET 0 0 0
                    }
                  }
                }
              }
            }
            JOINT Neck
            {
              OFFSET 5.0226 -0.0266342 0
              CHANNELS 3 Zrotation Xrotation Yrotation
              JOINT Head
              {
                OFFSET 6.69363 2.86102e-005 0
                CHANNELS 3 Zrotation Xrotation Yrotation
                End Site
                {
                  OFFSET 0 0 0
                }
              }
            }
          }
        }
      }
    }
  }
}
MOTION
Frames:	15
Frame Time:	0.0333333
-21.3981 77.0205 -4.04453 50.3719 18.6333 107.323 170.592 72.092 134.252 -45.9279 -6.30461 -3.11285 59.0516 -10.4203 -6.85416 28.7808 7.42536e-006 4.33373e-006 -134.69 79.6725 36.2129 -68.6409 45.8439 2.69033 74.6176 12.4077 5.45373 28.7808 1.42051e-005 2.26146e-005 -2.56503 11.7597 -86.1667 3.29807 -0.209426 4.67955 -8.38131 -0.00349225 4.68423 -30.8549 -1.60477 4.40135 -10.8423 -1.60477 4.40134 89.8085 -4.69986 -123.224 33.5142 10.349 -82.3633 -5.77276 1.19808 -17.1996 -5.37983 -0.320028 -0.0162418 -80.2084 -15.9419 90.9502 -18.6967 -24.6625 -65.8293 10.285 34.8131 -20.2653 11.7839 -2.41751 -22.9397 23.6714 -8.44721 21.9044 -15.1853 -13.6477 -18.238 
-20.6763 76.6822 -2.08674 50.2366 17.4964 105.923 173.103 70.2647 133.2 -43.0604 -7.9682 -3.5606 57.09 -12.1623 -8.28199 28.7808 7.42536e-006 4.33373e-006 -126.926 81.6362 29.4674 -70.5448 44.0737 2.42807 75.9635 12.3338 5.20803 28.7808 1.42051e-005 2.26146e-005 -2.58941 11.8005 -86.4936 3.22754 -0.632695 4.29863 -8.45043 -0.443065 4.32226 -30.9376 -1.89441 3.91084 -10.925 -1.8944 3.91084 89.9208 -4.82034 -122.755 32.5159 11.4413 -81.9697 -5.60969 1.13895 -16.8025 -5.37983 -0.320028 -0.0162418 -80.4147 -16.2286 90.4753 -18.5989 -24.7912 -65.5364 11.7143 34.3037 -22.8053 11.5662 -2.06504 -20.4205 24.5687 -8.03122 22.1267 -15.9416 -13.5558 -16.8135 
-19.9593 76.351 -0.346014 50.2303 16.2211 104 175.801 67.978 131.622 -40.4056 -9.99348 -3.91045 54.9496 -13.317 -9.44457 28.7808 7.42536e-006 4.33373e-006 -115.586 83.3155 19.0222 -72.2557 42.4833 2.20247 77.2003 11.5052 4.66158 28.7808 1.42051e-005 2.26146e-005 -2.6933 11.8581 -86.7222 3.11896 -1.08958 4.02532 -8.55788 -0.91149 4.06926 -31.0565 -2.24825 3.51284 -11.0438 -2.24826 3.51284 90.1789 -4.33154 -122.469 31.6342 12.9268 -80.9213 -5.4522 1.06908 -16.0978 -5.37983 -0.320028 -0.0162418 -80.0895 -17.168 91.3861 -19.625 -24.1028 -68.3597 12.4438 34.9412 -22.897 10.6969 -1.85183 -19.6515 26.0048 -6.72829 21.5214 -16.2677 -12.6848 -13.8281 
-19.2439 76.0991 1.15672 50.3811 14.7123 101.733 178.774 65.4473 129.837 -38.3105 -12.3733 -4.73634 53.2573 -13.8275 -10.1301 28.7808 7.42536e-006 4.33373e-006 -102.994 84.4649 7.20178 -73.6172 39.9967 1.90284 78.7143 10.3863 3.9821 28.7808 1.42051e-005 2.26146e-005 -2.78436 11.9243 -86.9176 2.9928 -1.55932 3.82956 -8.68303 -1.38937 3.89435 -31.1921 -2.63764 3.18491 -11.1794 -2.63761 3.18487 89.9118 -4.75673 -122.848 30.1995 14.9357 -79.9508 -5.21502 0.928387 -14.1853 -5.37983 -0.320028 -0.0162418 -80.1987 -18.0386 91.2217 -21.5257 -23.7351 -70.3917 13.1785 33.1331 -23.3853 8.96336 -1.50395 -18.5504 27.6533 -5.20338 21.6365 -17.6003 -11.4843 -13.4822 
-18.5349 76.0122 2.35317 50.4974 13.105 99.4297 -178.381 62.5508 127.859 -36.1972 -15.3784 -5.62068 51.9511 -13.988 -10.5058 28.7808 7.42536e-006 4.33373e-006 -88.249 85.1939 -6.87148 -74.7555 37.1865 1.5968 79.4743 8.36462 3.06614 28.7808 1.42051e-005 2.26146e-005 -2.86961 11.9827 -87.1676 2.88267 -2.04734 3.53912 -8.79171 -1.88968 3.62565 -31.314 -3.01595 2.76091 -11.3013 -3.01596 2.7609 89.5126 -5.08392 -123.719 29.4281 17.301 -78.9924 -5.45543 0.787319 -11.3674 -5.37983 -0.320028 -0.0162418 -80.641 -19.2707 90.3262 -22.7467 -23.8195 -71.5385 14.6494 32.9157 -24.1707 7.64133 -1.43054 -19.5694 29.1234 -3.59367 22.5993 -19.3752 -10.3893 -13.7601 
-17.7945 76.0818 3.2108 50.4236 11.2899 97.2278 -175.784 59.1133 125.89 -33.5476 -19.4495 -6.27868 50.5234 -15.4943 -11.8964 28.7808 7.42536e-006 4.33373e-006 -75.2207 85.5819 -19.3377 -75.4243 33.9939 1.2953 80.342 7.56296 2.65126 28.7808 1.42051e-005 2.26146e-005 -2.8565 12.0037 -87.4879 2.851 -2.48795 3.22994 -8.82185 -2.3435 3.33619 -31.3572 -3.34342 2.33318 -11.3445 -3.3434 2.33318 88.7412 -6.16972 -124.873 29.1567 19.5936 -78.5676 -6.31096 0.66168 -7.5002 -5.37983 -0.320028 -0.0162418 -81.1982 -20.3809 89.1904 -24.2664 -23.6388 -72.8117 14.6363 30.1251 -24.7134 7.44243 -1.23258 -17.6143 29.9054 -2.08152 21.8621 -21.1408 -8.94089 -11.7994 
-16.9393 76.3838 3.73864 50.6088 8.99195 94.5433 -173.548 55.218 124.018 -31.9521 -23.8534 -7.12988 49.1897 -15.5218 -12.2215 28.7808 7.42536e-006 4.33373e-006 -67.3436 85.9331 -26.7268 -75.7234 30.1402 0.97039 80.9076 6.21037 2.06916 28.7808 1.42051e-005 2.26146e-005 -2.90362 12.0015 -87.7186 2.86041 -2.8936 2.95287 -8.81096 -2.76088 3.0773 -31.3583 -3.64707 1.94657 -11.3457 -3.64706 1.94657 87.755 -7.40031 -126.415 28.9705 21.603 -77.6973 -7.67322 0.547361 -4.01237 -5.37983 -0.320028 -0.0162418 -81.8705 -20.9195 87.7447 -24.5194 -23.5566 -72.722 14.1792 29.3245 -24.3376 7.61995 -1.31314 -18.2822 29.453 -1.09715 21.7956 -22.6379 -7.78301 -11.5969 
-15.9955 76.91 3.93895 51.6199 6.6694 91.518 -171.468 50.606 121.905 -31.3691 -29.0674 -8.31527 47.9283 -15.0598 -12.16 28.7808 7.42536e-006 4.33373e-006 -76.0063 86.4195 -17.8187 -75.8402 26.3005 0.675038 80.9073 4.85367 1.54482 28.7808 1.42051e-005 2.26146e-005 -2.98501 12.0338 -87.8997 2.79601 -3.28848 2.67134 -8.87381 -3.16777 2.81349 -31.4332 -3.93907 1.55883 -11.4205 -3.93908 1.55884 86.4354 -9.11099 -128.261 28.4946 23.4298 -75.3651 -8.60728 0.521135 -3.12635 -5.37983 -0.320028 -0.0162418 -81.0004 -21.8778 89.8408 -27.0769 -19.6107 -75.7794 13.2936 28.0425 -23.4481 7.18078 -1.0685 -16.0382 27.4865 0.112792 20.1519 -22.156 -5.91668 -10.0089 
-14.9355 77.6248 3.79568 53.0276 4.20508 88.3253 -169.86 45.4385 119.619 -31.1466 -34.3924 -9.42583 46.4648 -14.5512 -12.1011 28.7808 7.42536e-006 4.33373e-006 -99.4049 86.5004 5.58756 -75.6878 22.3108 0.394746 80.6736 3.05022 0.863026 28.7808 1.42051e-005 2.26146e-005 -3.07882 12.0455 -88.0867 2.76929 -3.67106 2.32241 -8.89885 -3.56531 2.4818 -31.4705 -4.19906 1.11037 -11.4579 -4.19906 1.11039 84.8563 -11.2336 -130.198 28.0477 24.9941 -72.2193 -8.48847 0.487613 -3.67386 -5.37983 -0.320028 -0.0162418 -81.2089 -22.8485 89.5051 -27.6542 -17.3142 -76.0958 10.969 25.7977 -22.0479 7.88265 -1.12418 -15.8461 23.9282 0.88241 18.6505 -21.7375 -4.24548 -8.68133 
-13.7357 78.624 3.33889 53.7003 0.939673 84.8277 -168.715 40.3434 117.277 -31.3508 -39.715 -11.0142 44.9242 -14.1247 -12.1126 28.7808 7.42536e-006 4.33373e-006 -117.387 86.0382 23.4664 -74.8153 18.0474 0.132365 80.0426 1.38798 0.243684 28.7808 1.42051e-005 2.26146e-005 -3.12173 11.9063 -88.3193 3.04391 -3.9685 1.92408 -8.62267 -3.87997 2.09704 -31.2045 -4.36299 0.640514 -11.1918 -4.36298 0.640506 83.8304 -13.0103 -130.976 26.6621 25.3185 -68.0497 -7.00179 0.446988 -4.49118 -5.37983 -0.320028 -0.0162418 -81.7754 -24.2318 88.4706 -27.8301 -15.0864 -75.4398 10.1069 26.6244 -21.1306 8.66249 -1.2683 -16.6088 19.3058 1.83731 18.65 -21.2911 -2.5328 -8.89796 
-12.3885 79.8381 2.83439 54.8281 -2.91457 81.4342 -168.032 36.1318 115.676 -33.1287 -41.8045 -12.0415 43.2819 -11.8786 -10.6258 28.7808 7.42536e-006 4.33373e-006 -139.137 84.6215 45.0954 -73.641 12.7415 -0.171692 79.3149 -0.0335821 -0.289676 28.7808 1.42051e-005 2.26146e-005 -3.18578 11.7653 -88.4103 3.30872 -4.15213 1.51735 -8.3567 -4.08132 1.69886 -30.9448 -4.41583 0.197038 -10.9321 -4.41584 0.19702 82.7275 -15.0209 -131.665 26.6658 25.3051 -64.6093 -6.23278 0.384187 -4.01411 -5.37983 -0.320028 -0.0162418 -82.7654 -26.3267 86.7157 -27.9971 -13.5263 -74.4236 10.1632 28.2941 -18.8926 5.18557 -1.61009 -26.7713 13.8352 2.45333 16.9859 -20.3081 -0.802962 -7.85317 
-10.8927 81.2672 2.2185 55.8553 -6.85815 77.9708 -167.802 33.2986 114.06 -34.8691 -38.5294 -11.2557 41.2518 -7.33286 -7.15179 28.7808 7.42536e-006 4.33373e-006 -150.237 82.2049 55.685 -72.0555 6.87913 -0.478014 78.4634 -1.01727 -0.658822 28.7808 1.42051e-005 2.26146e-005 -3.24897 11.596 -88.3522 3.6199 -4.27816 1.19509 -8.04473 -4.22141 1.38251 -30.6366 -4.43918 -0.148459 -10.6239 -4.43915 -0.148434 81.8218 -17.7018 -131.293 28.098 24.7617 -62.2389 -6.37354 0.316531 -3.54722 -5.37983 -0.320028 -0.0162418 -83.9247 -27.9518 84.6452 -28.2977 -11.677 -73.1243 11.0929 30.178 -19.8647 -0.209243 -0.368562 -19.5301 8.5707 2.74926 14.1869 -18.6031 0.629578 -6.7462 
-9.26323 82.7905 1.6374 57.1187 -11.1319 75.4388 -167.417 31.3071 112.765 -35.2953 -28.3601 -8.20244 38.7374 -3.52467 -4.16878 28.7808 7.42536e-006 4.33373e-006 -160.604 78.7238 65.8253 -69.4806 1.90094 -0.69523 78.2399 -1.66537 -0.912932 28.7808 1.42051e-005 2.26146e-005 -3.14003 11.5041 -88.2964 3.78232 -4.23127 0.935747 -7.88219 -4.18597 1.12136 -30.4727 -4.31651 -0.381603 -10.4601 -4.31652 -0.381585 81.1649 -21.0166 -129.95 29.5246 23.7792 -59.7755 -6.13189 0.240985 -4.11576 -5.37983 -0.320028 -0.0162418 -83.668 -26.6108 84.9079 -31.4416 -7.35617 -72.6175 9.89894 26.7577 -19.5735 -1.03758 -0.22234 -15.8839 6.21032 2.50738 8.12378 -19.7937 1.42897 -3.39427 
-7.66315 84.4019 1.03991 57.7004 -15.4562 73.3918 -167.364 29.801 111.519 -35.4645 -22.6072 -6.8487 37.2573 -3.099 -3.95618 28.7808 7.42536e-006 4.33373e-006 -166.469 75.3609 71.6267 -66.2681 -2.74152 -0.878068 77.4303 -2.28262 -1.16418 28.7808 1.42051e-005 2.26146e-005 -2.93907 11.3776 -88.3259 4.03012 -4.06508 0.753744 -7.63478 -4.02795 0.932202 -30.2208 -4.10335 -0.504939 -10.2081 -4.10336 -0.504914 80.9001 -25.1368 -127.415 26.8091 20.317 -55.8249 -4.09719 0.48234 -4.53694 -5.37983 -0.320028 -0.0162418 -84.308 -25.562 83.3697 -32.6495 -5.24406 -70.9904 4.49075 14.8087 -17.5333 -1.91603 -0.160987 -20.6844 4.5612 1.90762 -0.234521 -22.2146 1.69736 1.4056 
-6.07043 86.0885 0.623888 58.2276 -19.3308 71.7315 -167.918 28.6866 110.184 -34.1318 -21.1312 -5.17521 34.638 -1.6232 -2.78159 28.7808 7.42536e-006 4.33373e-006 -170.943 72.1361 76.3985 -62.9822 -4.1775 -0.885501 75.3434 -3.51905 -1.71485 28.7808 1.42051e-005 2.26146e-005 -2.78552 11.2552 -88.362 4.26957 -3.91431 0.539523 -7.39566 -3.88676 0.711532 -29.9775 -3.89522 -0.663661 -9.9649 -3.89521 -0.663655 81.061 -29.1652 -124.445 32.615 21.2127 -56.218 -5.13697 0.204504 -3.93346 -5.37983 -0.320028 -0.0162418 -84.7394 -24.3444 82.1831 -34.3467 -2.71466 -69.1885 0.697146 6.48802 -16.9355 0.516281 -0.57166 -23.9891 0.437329 1.11847 -9.39731 -17.6732 1.14835 9.59559 
